<?xml version="1.0" encoding="utf-8"?>
<!-- Svg Vector Icons : http://www.onlinewebfonts.com/icon -->
<!DOCTYPE svg PUBLIC "-//W3C//DTD SVG 1.1//EN" "http://www.w3.org/Graphics/SVG/1.1/DTD/svg11.dtd">
<svg version="1.1" xmlns="http://www.w3.org/2000/svg" xmlns:xlink="http://www.w3.org/1999/xlink" x="0px" y="0px" viewBox="0 0 256 256" enable-background="new 0 0 256 256" xml:space="preserve">
<metadata> Svg Vector Icons : http://www.onlinewebfonts.com/icon </metadata>
<g><g><g><path fill="#000000" d="M114.9,10.7c-43.5,6.8-75.4,43.8-75.5,87.4c0,24.1,9,46,26,63c11.5,11.5,25.1,19.2,41.1,23.3c2.6,0.7,5.1,1.3,5.6,1.3c0.8,0,0.9,0.7,0.9,10.6v10.6l-45.3,0.1L22.5,207l-1.4,1.6c-2.3,2.6-1.6,5.9,1.5,7.4c1.6,0.8,4.9,0.9,48.6,0.8c35,0,47.4-0.1,48.6-0.6c3.1-1.1,3.4-2.2,3.4-16.6V187h4.8h4.8v12.5c0,14.2,0.2,15.4,3.1,16.6c1.4,0.6,8.5,0.7,48.3,0.7c29.6,0,47.2-0.2,48.3-0.5c2.3-0.6,3.3-1.9,3.7-4.2c0.2-1.6,0-2.1-1.2-3.5l-1.4-1.6l-45.3-0.1l-45.3-0.1v-10.6c0-9.9,0-10.6,0.9-10.6c1.4,0,10.2-2.4,14.5-3.9c27.4-10,48.5-33.3,55.5-61.4c7.8-30.9-1.5-63.7-24.3-85.5c-13.8-13.2-30.1-21.2-48.9-24.1C134.6,9.7,120.8,9.8,114.9,10.7z M135.8,20.1c6.6,0.7,11.2,1.6,17.2,3.6c28.2,9.4,48.5,33.6,53.1,63.5c0.8,5.3,0.7,18.2-0.2,23.7c-5.2,30.9-28,56.1-57.8,63.7c-12.9,3.3-27.1,3.3-40,0c-14.8-3.8-28.8-12.4-39-24.1c-9.9-11.3-16.2-24.6-18.7-39.6c-1-5.5-1.1-18.4-0.2-23.7c4.6-29.8,24.9-54,53.1-63.5C113.8,20.1,124.6,18.9,135.8,20.1z"/><path fill="#000000" d="M158.5,63c-9.8,7.2-20,14.8-22.7,16.8c-4.9,3.7-5,3.8-8.2,3.9c-15.3,0.8-19.7,20.6-6.2,27.8c1.7,0.9,2.8,1.1,6.6,1.1c3.8,0,4.9-0.2,6.6-1.1c4.8-2.6,7.9-7.5,8-12.8l0-3l13-17.6c7.2-9.7,14.7-19.7,16.6-22.4c1.9-2.6,3.7-5.1,4-5.4c0.2-0.3,0.3-0.6,0.2-0.6C176.4,49.9,168.3,55.8,158.5,63z"/><path fill="#000000" d="M21.4,237.7c-0.8,0.7-1.3,1.7-1.5,3c-0.2,1.7,0,2.2,1.2,3.6l1.4,1.6H128h105.5l1.4-1.6c1.3-1.4,1.4-1.9,1.2-3.6c-0.2-1.3-0.7-2.4-1.5-3l-1.3-1.1H128H22.7L21.4,237.7z"/></g></g></g>
</svg>